<svg aria-hidden="true" style="position: absolute; width: 0; height: 0; overflow: hidden;" version="1.1" xmlns="http://www.w3.org/2000/svg" xmlns:xlink="http://www.w3.org/1999/xlink">
<defs>
<symbol id="icon-umbrella" viewBox="0 0 32 32">
<title>umbrella</title>
<path d="M16 0c-8.82 0-16 7.178-16 16h4c0-0.826 0.676-1.5 1.5-1.5 0.828 0 1.5 0.674 1.5 1.5h4c0-0.826 0.676-1.5 1.5-1.5 0.828 0 1.5 0.674 1.5 1.5v10c0 1.102-0.895 2-2 2-1.102 0-2-0.898-2-2h-4c0 3.309 2.695 6 6 6 3.312 0 6-2.691 6-6v-10c0-0.826 0.676-1.5 1.5-1.5 0.828 0 1.498 0.674 1.498 1.5h4c0-0.826 0.68-1.5 1.5-1.5 0.828 0 1.5 0.674 1.5 1.5h4c0-8.822-7.172-16-15.998-16z"></path>
</symbol>
<symbol id="icon-star" viewBox="0 0 32 32">
<title>star</title>
<path d="M22.137 19.625l9.863-7.625h-12l-4-12-4 12h-12l9.875 7.594-3.875 12.406 10.016-7.68 9.992 7.68z"></path>
</symbol>
</defs>
</svg>
